**ABCDEFGHIJKLMNOPQRSTUVWXYZabcdefghijklmnopqrstuvwxyz**************************
**PARASOLID !"#$%&'()*+,-./:;<=>?@[\]^_`{|}~0123456789**************************
**PART1;
MC=AMD64;
MC_MODEL=Intel64 Family 6 Model 165 Stepping 2, GenuineIntel;
MC_ID=unknown;
OS=Windows_NT;
OS_RELEASE=unknown;
FRU=Parasolid Version 32.1, build 255,  1- 1-2021;
APPL=SOLIDWORKS 2021-2021166;
SITE=;
USER=unknown;
FORMAT=text;
GUISE=transmit;
KEY=makeProjectedPlanarWire;
FILE=makeProjectedPlanarWire.x_t;
DATE=Wed Nov  2 14:56:04 2022;
**PART2;
SCH=SCH_3201255_32001;
USFLD_SIZE=0;
**PART3;
**END_OF_HEADER*****************************************************************
T51 : TRANSMIT FILE created by modeller version 320125523 SCH_3201255_32001_1300
6229 0 12 34 CCCCCCI4 mesh1006 0 I8 polyline1008 0 CCCCCCCDI5 owner1040 0 CCCCCC
I13 boundary_mesh1006 0 I17 boundary_polyline1008 0 CCCA16 index_map_offset0 0 1
 dA9 index_map82 0 A17 node_id_index_map82 0 A20 schema_embedding_map82 0 A5 chi
ld12 0 A14 lowest_node_id0 0 1 dA16 mesh_offset_data206 0 Z1 3475 0 0 0 0 0 0 0
 0 1e3 1e-8 0 2 0 1 0 3 1 3 4 5 6 0 0 7 8 9 0 0 0 0 0 0 0 13 255 3 88 0 1 0 10 0
 0 7 10 50 255 4 3 0 10 0 0 0 +0 .028 0 0 1 0 0 0 1 31 255 5 59 0 8 11 0 0 +0 .0
28 .0145 0 1 0 0 0 1 .0025 29 255 6 86 0 9 12 0 .01 .028 .0125 19 8 CCCCCCCA5 ow
ner12 0 Z7 87 0 1 0 0 3 V0 16 255 8 57 0 ?13 0 14 5 0 0 1 18 255 9 84 0 15 0 16
 6 ?1 17 255 15 0 0 0 0 9 17 18 0 19 +18 16 81 0 20 9 21 12 ?1 17 20 0 22 19 23
 16 24 25 0 26 +18 21 78 0 23 16 27 28 ?1 29 12 83 0 16 28 6 .01 .028 .0165 29 2
8 80 0 21 29 12 .008 .028 .0185 29 29 77 0 27 30 28 -.008 .028 .0185 18 27 75 0
 31 21 32 29 ?1 29 30 74 0 32 33 29 -.01 .028 .0165 18 32 72 0 34 27 35 30 ?1 29
 33 71 0 35 36 30 -.01 .028 .0125 18 35 69 0 37 32 38 33 ?1 29 36 68 0 38 39 33
 -.008 .028 .0105 18 38 66 0 40 35 41 36 ?1 29 39 65 0 41 0 36 .008 .028 .0105 1
8 41 63 0 17 38 0 39 ?1 17 17 0 22 40 19 41 15 18 0 42 -15 255 22 7 0 17 10 43 1
7 40 0 22 37 17 38 42 44 0 45 -17 19 0 22 17 20 9 26 14 0 0 -16 18 9 0 ?15 44 0
 46 0 0 1 17 42 0 0 0 0 41 40 44 0 0 +16 44 15 0 ?42 47 18 48 0 0 1 16 47 21 0 ?
37 49 44 50 0 0 1 30 255 48 17 0 44 46 50 0 +0 .028 .0105 1 0 0 31 46 11 0 18 0
 48 0 -.008 .028 .0125 0 1 0 0 0 1 .002 31 50 23 0 47 48 51 0 +-.008 .028 .0125
 0 1 0 0 0 1 .002 30 51 29 0 49 50 52 0 +-.01 .028 -867361737988402e-32 -8673617
37988403e-30 0 1 16 49 27 0 ?34 53 47 51 0 0 1 31 52 35 0 53 51 54 0 +-.008 .028
 .0165 0 1 0 0 0 1 .002 16 53 33 0 ?31 55 49 52 0 0 1 30 54 41 0 55 52 56 0 +0 .
028 .0185 1 0 0 16 55 39 0 ?23 25 53 54 0 0 1 31 56 47 0 25 54 11 0 +.008 .028 .
0165 0 1 0 0 0 1 .002 16 25 45 0 ?20 14 55 56 0 0 1 30 11 53 0 14 56 5 0 +.01 .0
28 433680868994202e-32 -4336808689942015e-31 0 1 16 14 51 0 ?26 8 25 11 0 0 1 17
 26 0 0 0 0 16 19 14 0 0 +17 23 0 22 20 31 21 57 55 0 24 +17 31 0 22 23 34 27 58
 53 0 57 +17 57 0 0 0 0 27 23 55 0 0 -17 24 0 0 0 0 21 20 25 0 0 -17 34 0 22 31
 37 32 59 49 0 58 +17 58 0 0 0 0 32 31 53 0 0 -17 37 0 22 34 40 35 45 47 0 59 +1
7 59 0 0 0 0 35 34 49 0 0 -17 45 0 0 0 0 38 37 47 0 0 -14 255 10 1 0 ?0 0 22 3 4
 +0 0 0 0 3 15 43 8 0 60 10 0 17 60 0 43 60 60 0 13 8 0 0 -17 13 0 0 0 0 0 60 8
 0 0 +1 0 
